<svg xmlns="http://www.w3.org/2000/svg" width="234.38" height="141.095" viewBox="0 0 234.38 141.095">
  <g id="Group_1083" data-name="Group 1083" transform="translate(-255.62 -2339.711)">
    <g id="Group_1047" data-name="Group 1047" transform="translate(12512.469 7197.696)" opacity="0.432">
      <g id="Group_1038" data-name="Group 1038" transform="translate(-12255.849 -4856.984)">
        <g id="Group_1041" data-name="Group 1041" transform="translate(32.99 10.997)">
          <path id="Path_893" data-name="Path 893" d="M-10943-3187.842c0-43.4,39.807-39.681,39.756-52.829s-14.326-16.2-14.566-34.422,13.594-28.769,25.229-28.769,15.909,6.394,15.909,6.394" transform="translate(10943 3303.863)" fill="none" stroke="#fff" stroke-linecap="round" stroke-linejoin="round" stroke-width="2"/>
        </g>
        <g id="Group_1042" data-name="Group 1042" transform="translate(0 0)">
          <path id="Path_893-2" data-name="Path 893" d="M-10943-3187.842c0-43.4,39.807-39.681,39.756-52.829s-14.326-16.2-14.566-34.422,13.594-28.769,25.229-28.769,15.909,6.394,15.909,6.394" transform="translate(10943 3303.863)" fill="none" stroke="#fff" stroke-linecap="round" stroke-linejoin="round" stroke-width="2"/>
        </g>
        <g id="Group_1044" data-name="Group 1044" transform="translate(133.061 10.997)">
          <path id="Path_893-3" data-name="Path 893" d="M-10876.672-3187.842c0-43.4-39.808-39.681-39.758-52.829s14.327-16.2,14.568-34.422-13.595-28.769-25.23-28.769-15.908,6.394-15.908,6.394" transform="translate(10943 3303.863)" fill="none" stroke="#fff" stroke-linecap="round" stroke-linejoin="round" stroke-width="2"/>
        </g>
        <g id="Group_1045" data-name="Group 1045" transform="translate(166.052 0)">
          <path id="Path_893-4" data-name="Path 893" d="M-10876.672-3187.842c0-43.4-39.808-39.681-39.758-52.829s14.327-16.2,14.568-34.422-13.595-28.769-25.23-28.769-15.908,6.394-15.908,6.394" transform="translate(10943 3303.863)" fill="none" stroke="#fff" stroke-linecap="round" stroke-linejoin="round" stroke-width="2"/>
        </g>
      </g>
    </g>
    <path id="Path_893-2-2" data-name="Path 893-2" d="M2167.88,1763.719c0-43.4,39.81-39.681,39.757-52.83s-14.327-16.2-14.566-34.42,13.594-28.769,25.229-28.769c11.344,0,25.743,10.548,25.5,28.769.173,16.27-14.043,22.673-14.113,34.42s39.3,9.433,39.3,52.83" transform="translate(-1845.445 716.086)" fill="none" stroke="#f49b23" stroke-linecap="round" stroke-linejoin="round" stroke-width="2"/>
  </g>
</svg>
