<svg xmlns="http://www.w3.org/2000/svg" xmlns:xlink="http://www.w3.org/1999/xlink" width="314" height="169" viewBox="0 0 314 169">
  <defs>
    <clipPath id="clip-path">
      <rect id="Rectangle_1574" data-name="Rectangle 1574" width="66" height="136" transform="translate(-10036 -6273)" stroke="#f49b23" stroke-width="2"/>
    </clipPath>
    <clipPath id="clip-path-2">
      <rect id="Rectangle_1574-2" data-name="Rectangle 1574" width="66" height="136" transform="translate(-10036 -6273)" stroke="#fff" stroke-width="2"/>
    </clipPath>
  </defs>
  <g id="Group_1081" data-name="Group 1081" transform="translate(-1382 -2334)">
    <g id="Group_1034" data-name="Group 1034" transform="translate(579 8)">
      <g id="Rectangle_1572" data-name="Rectangle 1572" transform="translate(916 2326)" stroke="#fff" stroke-width="2">
        <rect width="88" height="169" rx="12" stroke="none"/>
        <rect x="1" y="1" width="86" height="167" rx="11" fill="none"/>
      </g>
      <rect id="Rectangle_1573" data-name="Rectangle 1573" width="66" height="136" transform="translate(927 2340)"/>
      <g id="Mask_Group_22" data-name="Mask Group 22" transform="translate(10963 8613)" clip-path="url(#clip-path)">
        <path id="Path_888" data-name="Path 888" d="M708.978,368.495l59.062-66.644-16.192,49.512,90.648-75.9-26.672,57.909,20.35-12.526-19.039,47.648Z" transform="translate(-10774.772 -6501.401)" fill="none" stroke="#f49b23" stroke-linecap="round" stroke-linejoin="round" stroke-width="2"/>
      </g>
      <g id="Ellipse_43" data-name="Ellipse 43" transform="translate(958 2481)" stroke="#fff" stroke-width="2">
        <circle cx="2.5" cy="2.5" r="2.5" stroke="none"/>
        <circle cx="2.5" cy="2.5" r="1.5" fill="none"/>
      </g>
      <g id="Subtraction_1" data-name="Subtraction 1" transform="translate(927 2335)" fill="none">
        <path d="M66,141H0V5H22V8a3,3,0,0,0,3,3H41a3,3,0,0,0,3-3V5H66V141Z" stroke="none"/>
        <path d="M 63.99971008300781 139.0003051757813 L 63.99971008300781 7.000406742095947 L 46.0001106262207 7.000406742095947 L 46.0001106262207 8.000106811523438 C 46.0001106262207 10.7569465637207 43.75725173950195 12.99980640411377 41.00039291381836 12.99980640411377 L 25.00021171569824 12.99980640411377 C 22.24287033081055 12.99980640411377 19.99961090087891 10.7569465637207 19.99961090087891 8.000106811523438 L 19.99961090087891 7.000406742095947 L 2.000011205673218 7.000406742095947 L 2.000011205673218 139.0003051757813 L 63.99971008300781 139.0003051757813 M 65.99971008300781 141.0013122558594 L 65.99971008300781 141.0003051757813 L 1.122680623666383e-05 141.0003051757813 L 1.122680623666383e-05 5.000406742095947 L 21.99961090087891 5.000406742095947 L 21.99961090087891 8.000106811523438 C 21.99961090087891 9.654147148132324 23.34567070007324 10.99980640411377 25.00021171569824 10.99980640411377 L 41.00039291381836 10.99980640411377 C 42.6544303894043 10.99980640411377 44.0001106262207 9.654147148132324 44.0001106262207 8.000106811523438 L 44.0001106262207 5.000406742095947 L 65.99971008300781 5.000406742095947 L 65.99971008300781 141.0003051757813 L 65.99971008300781 141.0013122558594 Z" stroke="none" fill="#fff"/>
      </g>
    </g>
    <g id="Group_1035" data-name="Group 1035" transform="translate(692 8)">
      <g id="Rectangle_1572-2" data-name="Rectangle 1572" transform="translate(916 2326)" stroke="#fff" stroke-width="2">
        <rect width="88" height="169" rx="12" stroke="none"/>
        <rect x="1" y="1" width="86" height="167" rx="11" fill="none"/>
      </g>
      <rect id="Rectangle_1573-2" data-name="Rectangle 1573" width="66" height="136" transform="translate(927 2340)"/>
      <g id="Mask_Group_22-2" data-name="Mask Group 22" transform="translate(10963 8613)" clip-path="url(#clip-path-2)">
        <path id="Path_895" data-name="Path 895" d="M966.555,287.832l-3.544,95.818H873.222l77.66-139.593-26.008,97.1,13.457-19.506-4.088,42.422Z" transform="translate(-10929.222 -6508.057)" stroke="#f49b23" stroke-linecap="round" stroke-linejoin="round" stroke-width="2"/>
      </g>
      <g id="Ellipse_43-2" data-name="Ellipse 43" transform="translate(958 2481)" stroke="#fff" stroke-width="2">
        <circle cx="2.5" cy="2.5" r="2.5" stroke="none"/>
        <circle cx="2.5" cy="2.5" r="1.5" fill="none"/>
      </g>
      <g id="Subtraction_1-2" data-name="Subtraction 1" transform="translate(927 2335)" fill="none">
        <path d="M66,141H0V5H22V8a3,3,0,0,0,3,3H41a3,3,0,0,0,3-3V5H66V141Z" stroke="none"/>
        <path d="M 63.99971008300781 139.0003051757813 L 63.99971008300781 7.000406742095947 L 46.0001106262207 7.000406742095947 L 46.0001106262207 8.000106811523438 C 46.0001106262207 10.7569465637207 43.75725173950195 12.99980640411377 41.00039291381836 12.99980640411377 L 25.00021171569824 12.99980640411377 C 22.24287033081055 12.99980640411377 19.99961090087891 10.7569465637207 19.99961090087891 8.000106811523438 L 19.99961090087891 7.000406742095947 L 2.000011205673218 7.000406742095947 L 2.000011205673218 139.0003051757813 L 63.99971008300781 139.0003051757813 M 65.99971008300781 141.0013122558594 L 65.99971008300781 141.0003051757813 L 1.122680623666383e-05 141.0003051757813 L 1.122680623666383e-05 5.000406742095947 L 21.99961090087891 5.000406742095947 L 21.99961090087891 8.000106811523438 C 21.99961090087891 9.654147148132324 23.34567070007324 10.99980640411377 25.00021171569824 10.99980640411377 L 41.00039291381836 10.99980640411377 C 42.6544303894043 10.99980640411377 44.0001106262207 9.654147148132324 44.0001106262207 8.000106811523438 L 44.0001106262207 5.000406742095947 L 65.99971008300781 5.000406742095947 L 65.99971008300781 141.0003051757813 L 65.99971008300781 141.0013122558594 Z" stroke="none" fill="#fff"/>
      </g>
    </g>
    <g id="Group_1036" data-name="Group 1036" transform="translate(466 8)">
      <g id="Path_902" data-name="Path 902" transform="translate(916 2326)">
        <path d="M 76 168 L 12 168 C 9.06180477142334 168 6.299456596374512 166.8558044433594 4.221826076507568 164.7781677246094 C 2.144195556640625 162.7005462646484 1 159.9382019042969 1 157 L 1 12 C 1 9.06180477142334 2.144195556640625 6.299456596374512 4.221826076507568 4.221826076507568 C 6.299456596374512 2.144195556640625 9.06180477142334 1 12 1 L 76 1 C 78.93819427490234 1 81.70054626464844 2.144195556640625 83.77817535400391 4.221826076507568 C 85.85580444335938 6.299456596374512 87 9.06180477142334 87 12 L 87 157 C 87 159.9382019042969 85.85580444335938 162.7005462646484 83.77817535400391 164.7781677246094 C 81.70054626464844 166.8558044433594 78.93819427490234 168 76 168 Z" stroke="none"/>
        <path d="M 12 2 C 6.485977172851563 2 2 6.485977172851563 2 12 L 2 157 C 2 162.5140228271484 6.485977172851563 167 12 167 L 76 167 C 81.51402282714844 167 86 162.5140228271484 86 157 L 86 12 C 86 6.485977172851563 81.51402282714844 2 76 2 L 12 2 M 12 0 L 76 0 C 82.62741088867188 0 88 5.372589111328125 88 12 L 88 157 C 88 163.6274108886719 82.62741088867188 169 76 169 L 12 169 C 5.372589111328125 169 0 163.6274108886719 0 157 L 0 12 C 0 5.372589111328125 5.372589111328125 0 12 0 Z" stroke="none" fill="#fff"/>
      </g>
      <rect id="Rectangle_1573-3" data-name="Rectangle 1573" width="66" height="136" transform="translate(927 2340)"/>
      <g id="Mask_Group_22-3" data-name="Mask Group 22" transform="translate(10963 8613)" clip-path="url(#clip-path-2)">
        <path id="Path_894" data-name="Path 894" d="M237.664,152.086l12.191,47.4L279.47,80.592l40.595,155.735H214.744Z" transform="translate(-10262.536 -6345.591)" stroke="#f49b23" stroke-linecap="round" stroke-linejoin="round" stroke-width="2"/>
      </g>
      <g id="Ellipse_43-3" data-name="Ellipse 43" transform="translate(958 2481)" stroke="#fff" stroke-width="2">
        <circle cx="2.5" cy="2.5" r="2.5" stroke="none"/>
        <circle cx="2.5" cy="2.5" r="1.5" fill="none"/>
      </g>
      <g id="Subtraction_1-3" data-name="Subtraction 1" transform="translate(927 2335)" fill="none">
        <path d="M66,141H0V5H22V8a3,3,0,0,0,3,3H41a3,3,0,0,0,3-3V5H66V141Z" stroke="none"/>
        <path d="M 63.99971008300781 139.0003051757813 L 63.99971008300781 7.000406742095947 L 46.0001106262207 7.000406742095947 L 46.0001106262207 8.000106811523438 C 46.0001106262207 10.7569465637207 43.75725173950195 12.99980640411377 41.00039291381836 12.99980640411377 L 25.00021171569824 12.99980640411377 C 22.24287033081055 12.99980640411377 19.99961090087891 10.7569465637207 19.99961090087891 8.000106811523438 L 19.99961090087891 7.000406742095947 L 2.000011205673218 7.000406742095947 L 2.000011205673218 139.0003051757813 L 63.99971008300781 139.0003051757813 M 65.99971008300781 141.0013122558594 L 65.99971008300781 141.0003051757813 L 1.122680623666383e-05 141.0003051757813 L 1.122680623666383e-05 5.000406742095947 L 21.99961090087891 5.000406742095947 L 21.99961090087891 8.000106811523438 C 21.99961090087891 9.654147148132324 23.34567070007324 10.99980640411377 25.00021171569824 10.99980640411377 L 41.00039291381836 10.99980640411377 C 42.6544303894043 10.99980640411377 44.0001106262207 9.654147148132324 44.0001106262207 8.000106811523438 L 44.0001106262207 5.000406742095947 L 65.99971008300781 5.000406742095947 L 65.99971008300781 141.0003051757813 L 65.99971008300781 141.0013122558594 Z" stroke="none" fill="#fff"/>
      </g>
    </g>
  </g>
</svg>
